# 3ds Max Wavefront OBJ Exporter v0.97b - (c)2007 guruware
# File Created: 09.08.2018 17:13:40

mtllib SM_Env_Rune_Rounded_02.mtl

#
# object SM_Env_Rune_Rounded_02
#

v  0.6810 0.3864 2.6002
v  0.6947 0.3361 2.6074
v  0.7098 0.3748 2.6032
v  0.6936 0.2533 2.6112
v  0.6768 0.2819 2.6003
v  0.6280 0.3324 2.5743
v  0.6049 0.2675 2.5627
v  0.5947 0.3853 2.5579
v  0.5736 0.3276 2.5510
v  0.5907 0.2533 2.5597
v  0.5054 0.2533 2.5147
v  0.4945 0.2874 2.5101
v  0.5511 0.3645 2.5394
v  0.5793 0.4138 2.5530
v  0.6805 0.2533 2.6054
v  0.7293 0.4137 2.5748
v  0.6698 0.2535 2.5801
v  0.8239 0.2533 2.5438
v  0.8187 0.4135 2.5469
v  0.7493 0.4048 2.5827
v  0.8462 0.4001 2.5326
v  0.9732 0.2533 2.4658
v  0.9732 0.4138 2.4658
v  0.9241 0.2533 2.3196
v  0.5791 0.2533 2.3166
v  0.9734 0.2533 2.3550
v  0.9430 0.2535 2.3162
v  0.9293 0.2535 2.2740
v  0.5512 0.2535 2.0464
v  0.9732 0.2533 2.1196
v  0.9734 0.2534 2.2492
v  0.5296 0.2533 2.1402
v  0.4461 0.2533 2.2147
v  0.4112 0.2534 2.2224
v  0.4112 0.2541 2.4291
v  0.4897 0.2533 2.4850
v  0.4411 0.2536 2.4825
v  0.8048 0.2533 2.0317
v  0.6932 0.2538 1.9736
v  0.6051 0.4138 2.5454
v  0.6749 0.4138 2.5102
v  0.7147 0.4137 2.5052
v  0.6741 0.4138 2.4502
v  0.8495 0.4138 2.4653
v  0.4901 0.4138 2.2053
v  0.4749 0.4134 2.4699
v  0.4872 0.4134 2.5043
v  0.8449 0.4138 2.3450
v  0.8747 0.4138 2.3752
v  0.9716 0.4119 2.3799
v  0.9383 0.4126 2.3298
v  0.6747 0.4120 2.2445
v  0.8102 0.4138 2.1706
v  0.8495 0.4138 2.2698
v  0.6142 0.4133 2.2010
v  0.5550 0.4138 2.1602
v  0.8449 0.4138 2.1302
v  0.9492 0.4136 2.1255
v  0.9490 0.4138 2.2401
v  0.9198 0.4138 2.2664
v  0.9732 0.4138 2.1946
v  0.8746 0.4138 2.0903
v  0.8044 0.4138 2.1164
v  0.7147 0.4138 2.0950
v  0.7139 0.4104 2.1860
v  0.7839 0.4116 2.0421
v  0.7348 0.4136 2.0307
v  0.6749 0.4138 2.0902
v  0.6693 0.4135 2.0303
v  0.5850 0.4138 2.1205
v  0.6745 0.4122 2.1860
v  0.4958 0.4130 2.0768
v  0.5950 0.4138 2.0253
v  0.4953 0.4097 2.1651
v  0.4456 0.4136 2.3760
v  0.4304 0.4108 2.2863
v  0.5007 0.3273 2.5089
v  0.4908 0.3962 2.4991
v  0.4605 0.3697 2.4828
v  0.4521 0.2824 2.4841
v  0.4391 0.3651 2.4771
v  0.8934 0.4093 2.4898
v  0.6942 0.3936 2.4910
v  0.6947 0.3926 2.3817
v  0.4449 0.4021 2.4536
v  0.4289 0.3320 2.4757
v  0.7152 0.4135 2.2402
v  0.4111 0.2823 2.4450
v  0.4118 0.3655 2.4338
v  0.4114 0.3805 2.4016
v  0.4114 0.3889 2.3635
v  0.4110 0.2968 2.2301
v  0.4110 0.3901 2.2819
v  0.4113 0.4138 2.2813
v  0.4157 0.4016 2.2113
v  0.4161 0.3225 2.2058
v  0.4158 0.3119 2.1671
v  0.4110 0.4138 2.1620
v  0.4112 0.4138 2.1196
v  0.9734 0.2825 2.3417
v  0.9727 0.3897 2.3311
v  0.9095 0.4108 2.3306
v  0.8829 0.3995 2.3054
v  0.7012 0.3950 2.2398
v  0.9509 0.2911 2.3063
v  0.9495 0.3760 2.3135
v  0.9236 0.3843 2.2888
v  0.9508 0.3467 2.2849
v  0.9533 0.2963 2.2795
v  0.4353 0.4138 2.2294
v  0.9644 0.3814 2.2580
v  0.9734 0.2925 2.2437
v  0.6836 0.3864 2.2196
v  0.6447 0.3923 2.1961
v  0.5737 0.3950 2.1450
v  0.7158 0.3889 2.2104
v  0.4196 0.2669 2.1785
v  0.6938 0.3916 2.1889
v  0.4314 0.4087 2.1953
v  0.4653 0.4077 2.1361
v  0.4953 0.4045 2.0954
v  0.9728 0.3858 2.1195
v  0.4953 0.2627 2.1651
v  0.4460 0.2568 2.1604
v  0.4110 0.2533 2.1511
v  0.8146 0.3933 2.1348
v  0.4499 0.4134 2.1249
v  0.5257 0.2603 2.1303
v  0.6940 0.3925 2.1146
v  0.4112 0.2533 2.1196
v  0.4362 0.4133 2.1070
v  0.4635 0.2533 2.1205
v  0.4602 0.2538 2.0930
v  0.4910 0.2691 2.1087
v  0.4637 0.3548 2.0912
v  0.5031 0.3796 2.0714
v  0.5232 0.3177 2.0656
v  0.4965 0.2923 2.0806
v  0.5156 0.2824 2.0719
v  0.8633 0.3546 2.0617
v  0.8187 0.4003 2.0432
v  0.8152 0.3448 2.0367
v  0.7640 0.3361 2.0102
v  0.6924 0.3020 1.9732
v  0.5268 0.2566 2.0703
v  0.6492 0.3806 1.9963
v  0.7912 0.3862 2.0414
v  0.7098 0.3961 2.0170
v  0.7490 0.3749 2.0158
v  0.7087 0.3562 1.9943
v  0.6584 0.3990 2.0113
v  0.6743 0.3455 1.9881
# 152 vertices

vn -0.0509 0.1277 0.9905
vn 0.1652 0.0426 0.9853
vn -0.4594 0.0277 0.8878
vn -0.4658 0.0278 0.8845
vn -0.4870 0.0464 0.8722
vn -0.4312 0.0161 0.9021
vn -0.4423 0.0039 0.8968
vn -0.4228 0.0713 0.9034
vn -0.4643 0.0071 0.8857
vn -0.4049 0.0082 0.9143
vn -0.4234 0.0131 0.9058
vn -0.4313 0.0070 0.9022
vn -0.4584 -0.0128 0.8886
vn -0.4641 0.0050 0.8857
vn -0.3912 -0.0014 0.9203
vn -0.3742 -0.0422 0.9264
vn -0.3989 0.1126 0.9100
vn 0.1324 0.5401 0.8311
vn 0.1323 0.5403 0.8310
vn -0.9209 -0.0487 0.3868
vn -0.9208 -0.0487 0.3870
vn 0.4605 -0.0027 0.8876
vn 0.4590 0.0003 0.8884
vn 0.4593 -0.0031 0.8883
vn 0.4595 0.0005 0.8882
vn 0.4574 0.0064 0.8892
vn 0.4627 -0.0018 0.8865
vn 0.4641 -0.0015 0.8858
vn 0.4655 0.0000 0.8851
vn -0.0012 -1.0000 -0.0009
vn 0.0000 -1.0000 -0.0000
vn 0.0003 -1.0000 -0.0021
vn 0.0024 -1.0000 -0.0024
vn 0.0002 -1.0000 -0.0000
vn -0.0009 -1.0000 -0.0000
vn 0.0033 -1.0000 -0.0043
vn 0.0105 -0.9999 -0.0064
vn 0.0028 -1.0000 -0.0006
vn 0.0006 -1.0000 -0.0015
vn -0.0009 -1.0000 0.0009
vn -0.0016 -1.0000 -0.0000
vn 0.0021 -1.0000 -0.0006
vn -0.0015 -1.0000 0.0021
vn -0.0027 -1.0000 0.0036
vn -0.0056 -1.0000 -0.0018
vn -0.0047 -1.0000 -0.0031
vn 0.0017 -1.0000 -0.0024
vn -0.0068 -1.0000 -0.0052
vn -0.0009 -1.0000 -0.0021
vn -0.0011 -1.0000 -0.0061
vn 0.0043 -1.0000 -0.0082
vn -0.0456 0.6036 0.7960
vn -0.0456 0.6038 0.7958
vn -0.1385 0.7956 0.5898
vn -0.1387 0.7957 0.5896
vn -0.1386 0.7955 0.5898
vn -0.3898 0.4854 0.7826
vn -0.3229 -0.4944 0.8070
vn -0.3231 -0.4943 0.8070
vn 0.0003 1.0000 0.0009
vn 0.0018 1.0000 0.0009
vn 0.0011 1.0000 0.0009
vn 0.0002 1.0000 0.0009
vn 0.0027 1.0000 -0.0018
vn -0.0026 1.0000 0.0012
vn 0.0017 1.0000 0.0027
vn -0.0003 1.0000 0.0012
vn -0.0043 1.0000 0.0076
vn -0.0030 1.0000 0.0021
vn -0.0061 1.0000 0.0033
vn -0.0009 1.0000 -0.0003
vn 0.0096 0.9999 -0.0058
vn 0.0103 0.9999 -0.0113
vn 0.0199 0.9997 -0.0113
vn 0.0195 0.9998 -0.0000
vn 0.0084 0.9999 0.0073
vn -0.0015 1.0000 -0.0000
vn -0.0003 1.0000 -0.0003
vn 0.0046 0.9999 0.0146
vn -0.0230 0.9997 0.0125
vn 0.0006 1.0000 0.0009
vn -0.0003 1.0000 -0.0006
vn -0.0013 1.0000 -0.0009
vn 0.0000 1.0000 -0.0000
vn -0.0033 1.0000 -0.0018
vn 0.0000 1.0000 -0.0097
vn -0.0029 0.9999 0.0131
vn 0.0058 1.0000 -0.0000
vn -0.0088 0.9993 0.0371
vn 0.0189 0.9997 -0.0170
vn 0.0122 0.9999 -0.0000
vn 0.0005 1.0000 0.0006
vn 0.0002 1.0000 -0.0036
vn -0.0015 1.0000 0.0009
vn 0.0059 0.9998 0.0173
vn -0.0274 0.9996 0.0100
vn -0.0023 1.0000 -0.0006
vn -0.0494 0.9988 0.0009
vn -0.0371 0.9993 -0.0085
vn -0.0756 0.9970 -0.0185
vn 0.1648 0.8367 0.5223
vn 0.1650 0.8368 0.5221
vn 0.1648 0.8368 0.5221
vn -0.0432 -0.1609 0.9860
vn -0.0430 -0.1609 0.9860
vn 0.2680 0.3025 0.9147
vn 0.2679 0.3026 0.9147
vn 0.2678 0.3025 0.9147
vn -0.2488 0.0478 0.9674
vn -0.2487 0.0478 0.9674
vn -0.4673 0.0227 0.8838
vn -0.4794 0.0183 0.8774
vn -0.5064 0.0233 0.8620
vn -0.4724 -0.0190 0.8812
vn -0.5234 0.0461 0.8508
vn -0.5074 0.0498 0.8603
vn -0.4880 0.0676 0.8702
vn -0.4975 0.1029 0.8613
vn -0.4777 0.0322 0.8779
vn 0.5090 0.8382 0.1958
vn 0.5090 0.8383 0.1955
vn 0.0005 0.9795 0.2016
vn -0.0055 0.9816 0.1906
vn 0.0008 0.9774 0.2116
vn 0.0063 0.9791 0.2031
vn -0.6398 -0.3437 0.6874
vn -0.6397 -0.3437 0.6875
vn -0.8630 -0.2142 0.4576
vn -0.9014 -0.2873 0.3238
vn -0.9015 -0.2873 0.3237
vn -0.0935 0.6379 -0.7644
vn -0.0937 0.6379 -0.7644
vn -0.3020 0.2766 0.9123
vn -0.3019 0.2765 0.9124
vn -0.4080 -0.5021 0.7625
vn -0.4081 -0.5021 0.7624
vn 0.7142 0.6999 -0.0055
vn 0.7197 0.6943 -0.0097
vn 0.7162 0.6979 -0.0064
vn 0.7115 0.7027 -0.0036
vn 0.7102 0.7040 -0.0043
vn -0.6476 0.3119 0.6953
vn -0.6476 0.3119 0.6952
vn -0.0532 -0.0372 0.9979
vn -0.5484 0.5537 0.6266
vn -0.5486 0.5537 0.6265
vn -0.5487 0.5538 0.6263
vn -0.3235 0.5415 0.7760
vn -0.3237 0.5414 0.7760
vn -0.3237 0.5414 0.7759
vn -0.2589 0.0418 0.9650
vn -0.2590 0.0418 0.9650
vn -0.2607 0.0409 0.9645
vn -0.2574 0.0427 0.9654
vn -0.7080 0.7062 -0.0061
vn -0.6960 0.7180 -0.0100
vn -0.7198 0.6941 -0.0021
vn -0.9362 0.2803 0.2119
vn -0.8047 -0.0751 0.5889
vn -0.8045 -0.0750 0.5892
vn -0.9051 0.0651 0.4202
vn -0.7358 0.3504 0.5795
vn -0.7360 0.3505 0.5792
vn -0.8409 -0.2702 0.4688
vn -0.4105 0.9026 0.1298
vn -0.4105 0.9026 0.1295
vn -1.0000 0.0056 -0.0033
vn -1.0000 0.0035 -0.0018
vn -0.9997 0.0064 -0.0231
vn -1.0000 0.0029 0.0073
vn -1.0000 -0.0012 0.0024
vn -1.0000 -0.0010 0.0031
vn -1.0000 0.0013 -0.0036
vn -1.0000 0.0038 -0.0082
vn -0.9991 0.0050 -0.0423
vn -0.9981 -0.0016 -0.0623
vn -0.9995 -0.0237 -0.0210
vn -0.9988 -0.0310 0.0377
vn -0.9980 -0.0291 0.0553
vn -0.9958 -0.0122 0.0903
vn -0.9989 -0.0471 -0.0036
vn -0.9989 -0.0465 0.0082
vn 1.0000 0.0077 -0.0000
vn 0.9999 0.0105 0.0061
vn 0.9999 0.0072 -0.0082
vn 1.0000 0.0000 0.0021
vn 0.9998 0.0085 0.0182
vn 0.9998 0.0084 0.0189
vn -0.7832 0.5599 0.2703
vn -0.7832 0.5598 0.2706
vn -0.6506 0.7520 0.1055
vn -0.6243 0.7723 0.1177
vn -0.6344 0.7606 0.1377
vn -0.6107 0.7821 0.1238
vn -0.6026 0.7943 0.0769
vn -0.1972 0.9554 -0.2198
vn -0.1971 0.9554 -0.2198
vn -0.0658 0.9906 -0.1198
vn -0.0657 0.9906 -0.1198
vn -0.0658 0.9907 -0.1195
vn 0.1789 0.9676 -0.1781
vn 0.1788 0.9676 -0.1782
vn 0.1788 0.9677 -0.1779
vn 0.5298 0.7763 -0.3415
vn 0.5299 0.7762 -0.3417
vn -0.7969 0.6035 -0.0264
vn 0.8377 -0.0481 -0.5440
vn 0.7864 -0.2565 -0.5619
vn 0.7669 -0.2847 -0.5752
vn 0.7669 -0.2847 -0.5751
vn 0.7466 -0.3128 -0.5872
vn -0.0690 0.9357 -0.3460
vn -0.0689 0.9357 -0.3460
vn -0.7303 0.6830 0.0140
vn -0.7302 0.6831 0.0140
vn 0.2647 0.4593 -0.8479
vn 0.3041 0.4643 -0.8319
vn 0.3430 0.4683 -0.8143
vn 0.5749 0.0781 -0.8145
vn 0.5747 0.0780 -0.8146
vn 0.3574 0.9339 0.0079
vn 0.3678 0.9295 0.0295
vn 0.3737 0.9273 0.0231
vn 0.3494 0.9370 -0.0000
vn 0.3363 0.9411 -0.0356
vn 0.9994 0.0135 0.0304
vn 0.9977 0.0261 0.0629
vn 0.9947 0.0386 0.0958
vn 0.6666 0.5356 -0.5184
vn -0.2512 0.0265 0.9676
vn -0.2513 0.0265 0.9675
vn -0.2515 0.0265 0.9675
vn 0.9799 -0.1934 0.0496
vn 0.9799 -0.1934 0.0499
vn 0.8536 -0.4426 -0.2749
vn 0.8535 -0.4425 -0.2751
vn 0.8535 -0.4425 -0.2752
vn 0.1388 0.9882 0.0645
vn 0.1386 0.9883 0.0642
vn 0.0240 0.9982 0.0547
vn 0.0390 0.6069 0.7938
vn 0.0391 0.6069 0.7938
vn 0.5811 0.3439 0.7376
vn 0.5606 0.5451 0.6233
vn 0.5374 0.5667 0.6245
vn 0.5136 0.5878 0.6250
vn 0.8777 0.0022 0.4791
vn 0.8725 0.0290 0.4877
vn 0.8767 0.0241 0.4805
vn 0.8726 0.0678 0.4837
vn 0.8844 0.0142 0.4664
vn 0.4581 -0.3593 0.8131
vn 0.4581 -0.3592 0.8131
vn 0.7309 0.5611 0.3886
vn 0.7308 0.5610 0.3888
vn 0.9150 0.3958 -0.0778
vn -0.4321 0.9018 -0.0049
vn -0.4321 0.9018 -0.0052
vn -0.4322 0.9018 -0.0052
vn 0.9824 0.0714 0.1724
vn -0.0036 1.0000 -0.0009
vn 0.4256 0.7213 -0.5464
vn 0.4174 0.7192 -0.5555
vn 0.4249 0.7032 -0.5701
vn 0.4045 0.7454 -0.5299
vn 0.4012 0.7146 -0.5731
vn 0.3848 0.7806 -0.4926
vn 0.3848 0.7804 -0.4928
vn -0.3937 0.9009 -0.1824
vn -0.3939 0.9008 -0.1827
vn -0.1490 0.9507 -0.2718
vn -0.1491 0.9507 -0.2718
vn -0.7028 0.5415 -0.4613
vn -0.7029 0.5415 -0.4612
vn -0.9881 0.0631 -0.1402
vn -0.9861 0.0460 -0.1600
vn -0.9882 0.0631 -0.1399
vn -0.9833 0.0288 -0.1797
vn -0.9832 0.0288 -0.1800
vn -0.4279 0.6923 -0.5810
vn -0.4281 0.6924 -0.5808
vn -0.0301 0.9873 0.1563
vn -0.0628 0.9877 -0.1429
vn -0.0698 0.9901 -0.1216
vn -0.0657 0.9898 -0.1268
vn -0.0433 0.9956 -0.0830
vn -0.0777 0.9907 -0.1119
vn -0.0508 0.9960 -0.0730
vn -0.0137 0.9984 -0.0547
vn 0.0059 0.9972 -0.0748
vn -0.5030 0.6280 0.5938
vn 1.0000 0.0004 -0.0021
vn 1.0000 0.0013 -0.0036
vn 1.0000 0.0020 -0.0046
vn 1.0000 0.0000 -0.0018
vn 1.0000 0.0031 -0.0070
vn -0.0712 -0.9502 -0.3035
vn -0.0711 -0.9501 -0.3037
vn -0.2701 0.7271 0.6311
vn -0.2702 0.7273 0.6310
vn -0.9890 -0.1085 -0.1009
vn -0.9889 -0.1084 -0.1013
vn -0.4745 0.8768 -0.0781
vn -0.1709 0.9523 0.2527
vn -0.1710 0.9523 0.2527
vn 0.6619 0.6711 0.3339
vn -0.9864 0.1604 -0.0362
vn -0.9864 0.1605 -0.0362
vn -0.6064 -0.4115 -0.6804
vn -0.6066 -0.4115 -0.6802
vn 0.1431 0.9875 0.0663
vn 0.1430 0.9875 0.0666
vn 0.1248 -0.9901 -0.0635
vn 0.1199 -0.9907 -0.0635
vn 0.1201 -0.9907 -0.0638
vn 0.1155 -0.9913 -0.0635
vn 0.4127 0.7053 0.5764
vn 0.4211 0.6959 0.5817
vn 0.4042 0.7146 0.5710
vn -0.8072 -0.3876 0.4451
vn -0.8073 -0.3876 0.4451
vn -0.8073 -0.3877 0.4449
vn 0.2049 0.9575 0.2028
vn 0.2049 0.9575 0.2031
vn -0.3542 0.7882 0.5032
vn -0.3351 0.8033 0.4923
vn -0.3350 0.8034 0.4923
vn -0.3157 0.8176 0.4815
vn -0.4854 -0.7925 -0.3694
vn -0.4852 -0.7924 -0.3697
vn -0.4853 -0.7925 -0.3694
vn -0.4102 0.7685 -0.4911
vn 0.7322 0.6810 0.0128
vn 0.7273 0.6863 0.0100
vn 0.7370 0.6757 0.0152
vn -0.9953 0.0000 0.0970
vn -0.9920 -0.0223 0.1240
vn -0.9955 -0.0302 0.0897
vn -0.9876 -0.0446 0.1508
vn -0.8410 0.5410 -0.0000
vn 0.0119 0.9999 -0.0000
vn 0.0129 0.9999 -0.0064
vn 0.0137 0.9998 -0.0128
vn -0.5440 0.6973 -0.4667
vn -0.5439 0.6972 -0.4670
vn 0.0867 -0.9885 0.1240
vn 0.0868 -0.9885 0.1237
vn 0.0678 -0.9909 0.1161
vn 0.1058 -0.9856 0.1323
vn -0.0102 -0.9998 -0.0173
vn 0.0002 -1.0000 -0.0088
vn 0.0002 -1.0000 -0.0085
vn 0.0103 -0.9999 -0.0000
vn 0.7127 0.6557 -0.2490
vn -0.1876 -0.9774 -0.0973
vn -0.9986 0.0526 -0.0000
vn 0.4501 -0.8826 -0.1353
vn 0.7620 0.2948 0.5765
vn 0.7619 0.2947 0.5767
vn 0.2654 0.9567 0.1195
vn 0.2653 0.9567 0.1195
vn -0.6841 0.7293 0.0079
vn -0.6958 0.7181 0.0137
vn -0.6958 0.7181 0.0140
vn -0.7072 0.7067 0.0201
vn -0.2639 0.5671 0.7802
vn -0.2638 0.5670 0.7803
vn -0.4622 0.0144 -0.8867
vn -0.4493 0.0289 -0.8929
vn -0.4561 -0.0060 -0.8899
vn -0.4753 0.0004 -0.8798
vn -0.4760 0.0008 -0.8794
vn -0.4363 -0.0241 -0.8995
vn -0.4329 -0.0648 -0.8991
vn -0.4378 -0.0705 -0.8963
vn -0.4418 -0.0653 -0.8948
vn 0.4581 0.0396 -0.8880
vn 0.4649 -0.0018 -0.8853
vn 0.4578 0.0293 -0.8886
vn 0.4480 0.0771 -0.8907
vn 0.4614 -0.0038 -0.8872
vn 0.4564 0.0229 -0.8895
vn 0.4599 -0.0018 -0.8879
vn 0.4602 -0.0008 -0.8878
vn 0.4584 0.0009 -0.8888
vn 0.1873 -0.7746 -0.6040
vn 0.1871 -0.7748 -0.6039
vn 0.7082 -0.6993 -0.0976
vn 0.7081 -0.6993 -0.0976
vn 0.7082 -0.6992 -0.0976
vn -0.0836 0.7165 0.6926
vn -0.0835 0.7165 0.6926
vn -0.0836 0.7166 0.6924
vn 0.6979 0.4735 -0.5373
vn 0.6978 0.4735 -0.5375
vn -0.0196 -0.9366 -0.3500
vn -0.0195 -0.9365 -0.3502
vn -0.8996 -0.4365 0.0106
vn -0.8996 -0.4366 0.0103
vn -0.8801 -0.4746 0.0131
vn -0.9175 -0.3977 0.0076
vn -0.3575 0.5884 -0.7252
vn -0.3575 0.5882 -0.7254
vn -0.3576 0.5884 -0.7252
vn -0.5747 0.3023 -0.7605
vn -0.5746 0.3022 -0.7606
vn 0.3741 0.4850 -0.7905
vn -0.5687 -0.5751 -0.5881
vn -0.5686 -0.5750 -0.5883
vn -0.3173 -0.0060 -0.9483
vn -0.3174 -0.0060 -0.9483
vn -0.9741 -0.1938 -0.1161
vn -0.9742 -0.1938 -0.1158
vn 0.3812 0.6640 -0.6433
vn 0.3813 0.6641 -0.6431
vn -0.1636 -0.9857 -0.0395
vn -0.1636 -0.9857 -0.0401
vn -0.1636 -0.9857 -0.0398
vn -0.4554 0.0253 -0.8899
vn -0.4610 0.0453 -0.8862
vn -0.4591 0.0206 -0.8881
vn -0.4575 0.0058 -0.8892
vn -0.4721 -0.0012 -0.8815
vn -0.4746 -0.0073 -0.8802
vn -0.4930 -0.0156 -0.8699
vn -0.5924 -0.0170 -0.8054
vn -0.5926 -0.0170 -0.8053
vn -0.6924 -0.2567 -0.6743
vn -0.6923 -0.2566 -0.6745
vn 0.2732 0.7888 -0.5506
vn 0.2732 0.7889 -0.5504
vn 0.2733 0.7888 -0.5506
vn -0.8556 -0.2352 -0.4612
vn -0.8556 -0.2351 -0.4612
vn 0.2294 0.0926 -0.9689
vn 0.2293 0.0926 -0.9689
vn 0.2295 0.0926 -0.9689
vn 0.0251 0.0783 -0.9966
vn 0.0249 0.0783 -0.9966
vn 0.0444 0.0406 -0.9982
vn 0.0055 0.1159 -0.9932
vn 0.0029 0.6124 -0.7906
vn 0.0027 0.6125 -0.7905
vn 0.4144 0.3080 -0.8564
vn 0.3901 0.3246 -0.8617
vn 0.3947 0.2941 -0.8705
vn 0.4385 0.2913 -0.8502
vn 0.3544 0.2654 -0.8966
vn 0.0456 0.7821 -0.6215
vn 0.0800 0.7705 -0.6324
vn 0.0799 0.7703 -0.6326
vn 0.1143 0.7578 -0.6424
vn 0.2138 0.4455 -0.8694
vn 0.1963 0.4139 -0.8889
vn 0.2311 0.4762 -0.8484
vn 0.3729 0.4494 -0.8118
vn 0.3730 0.4495 -0.8117
vn 0.3728 0.4494 -0.8118
vn -0.0211 0.6376 -0.7701
vn 0.1239 0.4880 -0.8640
vn 0.3457 0.4407 -0.8284
vn 0.3813 0.4600 -0.8019
vn 0.2839 0.4139 -0.8649
vn 0.2584 0.4073 -0.8760
vn 0.2840 0.4141 -0.8648
vn 0.0379 0.4063 -0.9130
vn 0.0379 0.4062 -0.9130
vn 0.2217 -0.1511 -0.9633
vn 0.2218 -0.1511 -0.9633
# 469 vertex normals

vt 0.2116 0.3040 0.0000
vt 0.3083 0.3818 0.0000
# 2 texture coords

g SM_Env_Rune_Rounded_02
usemtl Maxted_A_Frame_VR_TX_01
s 1
f 1/1/1 2/1/1 3/1/1 
f 2/1/2 4/1/2 3/1/2 
f 2/1/3 5/1/4 4/1/5 
f 6/1/6 2/1/3 1/1/7 
f 6/1/6 5/1/8 2/1/3 
f 6/1/6 7/1/9 5/1/4 
f 8/1/10 6/1/6 1/1/7 
f 8/1/10 9/1/11 6/1/6 
f 6/1/6 9/1/11 10/1/12 
f 9/1/11 11/1/13 10/1/12 
f 12/1/14 11/1/13 9/1/11 
f 13/1/15 9/1/11 8/1/10 
f 13/1/15 8/1/10 14/1/16 
f 4/1/17 5/1/8 15/1/17 
f 1/1/18 3/1/19 16/1/19 
f 17/1/20 15/1/21 5/1/20 
f 18/1/22 3/1/23 4/1/24 
f 3/1/23 18/1/22 19/1/25 
f 3/1/23 19/1/25 20/1/26 
f 18/1/22 21/1/27 19/1/25 
f 21/1/27 18/1/22 22/1/28 
f 22/1/28 23/1/29 21/1/27 
f 4/1/30 15/1/31 17/1/32 
f 24/1/33 4/1/30 17/1/32 
f 18/1/34 4/1/30 24/1/33 
f 24/1/33 17/1/32 25/1/35 
f 26/1/36 18/1/34 24/1/33 
f 26/1/36 22/1/31 18/1/34 
f 26/1/36 24/1/33 27/1/37 
f 27/1/37 24/1/33 28/1/38 
f 28/1/38 24/1/33 29/1/39 
f 24/1/33 25/1/35 29/1/39 
f 30/1/40 28/1/38 29/1/39 
f 31/1/41 28/1/38 30/1/40 
f 29/1/39 25/1/35 32/1/42 
f 25/1/35 33/1/43 32/1/42 
f 25/1/35 34/1/44 33/1/43 
f 35/1/45 34/1/44 25/1/35 
f 25/1/35 36/1/46 35/1/45 
f 11/1/47 36/1/46 25/1/35 
f 37/1/48 35/1/45 36/1/46 
f 30/1/40 29/1/39 38/1/49 
f 38/1/49 29/1/39 39/1/50 
f 17/1/32 11/1/47 25/1/35 
f 17/1/32 10/1/51 11/1/47 
f 3/1/52 20/1/52 16/1/53 
f 1/1/54 16/1/55 40/1/56 
f 8/1/57 1/1/57 40/1/57 
f 7/1/58 17/1/58 5/1/59 
f 40/1/60 16/1/61 41/1/62 
f 42/1/63 41/1/62 16/1/61 
f 40/1/60 41/1/62 43/1/64 
f 43/1/64 14/1/65 40/1/60 
f 42/1/63 16/1/61 19/1/66 
f 42/1/63 19/1/66 44/1/67 
f 45/1/68 14/1/65 43/1/64 
f 46/1/69 14/1/65 45/1/68 
f 46/1/69 47/1/70 14/1/65 
f 42/1/63 44/1/67 48/1/71 
f 48/1/71 44/1/67 49/1/72 
f 44/1/67 23/1/73 49/1/72 
f 49/1/72 23/1/73 50/1/74 
f 49/1/72 50/1/74 51/1/75 
f 45/1/68 43/1/64 52/1/76 
f 53/1/77 42/1/63 48/1/71 
f 53/1/77 48/1/71 54/1/78 
f 45/1/68 52/1/76 55/1/79 
f 45/1/68 55/1/79 56/1/80 
f 53/1/77 54/1/78 57/1/81 
f 57/1/81 54/1/78 58/1/82 
f 54/1/78 59/1/83 58/1/82 
f 54/1/78 60/1/84 59/1/83 
f 58/1/82 59/1/83 61/1/85 
f 57/1/81 58/1/82 62/1/86 
f 63/1/87 57/1/81 62/1/86 
f 64/1/88 63/1/87 62/1/86 
f 64/1/88 65/1/89 63/1/87 
f 64/1/88 62/1/86 66/1/90 
f 67/1/91 64/1/88 66/1/90 
f 64/1/88 67/1/91 68/1/92 
f 68/1/92 67/1/91 69/1/93 
f 69/1/93 70/1/94 68/1/92 
f 70/1/94 71/1/95 68/1/92 
f 72/1/96 56/1/80 70/1/94 
f 73/1/97 72/1/96 70/1/94 
f 73/1/97 70/1/94 69/1/93 
f 74/1/98 56/1/80 72/1/96 
f 75/1/99 46/1/69 45/1/68 
f 76/1/100 75/1/99 45/1/68 
f 20/1/101 19/1/102 16/1/103 
f 10/1/104 7/1/105 6/1/104 
f 14/1/106 8/1/107 40/1/108 
f 10/1/109 17/1/110 7/1/110 
f 14/1/111 47/1/111 13/1/112 
f 13/1/112 77/1/113 9/1/114 
f 78/1/115 77/1/113 13/1/112 
f 78/1/115 79/1/116 77/1/113 
f 77/1/113 12/1/117 9/1/118 
f 80/1/119 12/1/117 77/1/113 
f 81/1/119 80/1/119 77/1/113 
f 44/1/120 19/1/121 21/1/121 
f 82/1/122 44/1/123 21/1/124 
f 21/1/124 23/1/125 82/1/122 
f 82/1/122 23/1/125 44/1/123 
f 47/1/126 78/1/126 13/1/127 
f 36/1/128 11/1/128 12/1/128 
f 47/1/129 46/1/129 78/1/130 
f 83/2/131 41/2/131 42/2/132 
f 81/1/133 77/1/134 79/1/133 
f 36/1/135 12/1/135 80/1/136 
f 43/2/137 41/2/138 83/2/139 
f 43/2/137 83/2/139 84/2/140 
f 84/2/140 52/2/141 43/2/137 
f 85/1/142 79/1/142 78/1/143 
f 36/1/144 80/1/144 37/1/144 
f 46/1/145 85/1/146 78/1/147 
f 79/1/148 85/1/149 81/1/150 
f 86/1/151 80/1/152 81/1/153 
f 86/1/151 37/1/154 80/1/152 
f 42/2/155 84/2/155 83/2/156 
f 84/2/155 42/2/155 87/2/157 
f 85/1/158 86/1/158 81/1/158 
f 86/1/159 88/1/159 37/1/160 
f 86/1/161 89/1/161 88/1/161 
f 85/1/162 89/1/163 86/1/163 
f 37/1/164 88/1/164 35/1/164 
f 85/1/165 46/1/165 75/1/166 
f 89/1/167 35/1/168 88/1/169 
f 90/1/170 35/1/168 89/1/167 
f 91/1/171 35/1/168 90/1/170 
f 91/1/171 34/1/172 35/1/168 
f 91/1/171 92/1/173 34/1/172 
f 92/1/173 91/1/171 93/1/174 
f 94/1/175 92/1/173 93/1/174 
f 95/1/176 96/1/177 94/1/175 
f 97/1/178 96/1/177 98/1/179 
f 98/1/179 96/1/179 95/1/180 
f 99/1/181 97/1/178 98/1/182 
f 26/1/183 50/1/184 23/1/185 
f 22/1/186 26/1/183 23/1/185 
f 26/1/183 100/1/187 50/1/184 
f 50/1/184 100/1/187 101/1/188 
f 90/1/189 89/1/189 85/1/190 
f 85/1/191 75/1/192 90/1/193 
f 91/1/194 90/1/193 75/1/192 
f 91/1/194 75/1/192 76/1/195 
f 49/1/196 102/1/197 103/1/196 
f 49/1/198 51/1/199 102/1/200 
f 48/1/201 49/1/202 103/1/203 
f 50/1/204 101/1/205 51/1/205 
f 87/2/206 104/2/206 84/2/206 
f 101/1/207 100/1/207 105/1/207 
f 100/1/208 26/1/209 105/1/210 
f 105/1/210 26/1/209 27/1/211 
f 103/1/212 102/1/213 51/1/213 
f 76/1/214 93/1/215 91/1/215 
f 103/1/216 51/1/217 106/1/217 
f 51/1/217 101/1/218 106/1/217 
f 106/1/219 101/1/219 105/1/220 
f 103/1/221 54/1/222 48/1/223 
f 107/1/224 54/1/222 103/1/221 
f 103/1/221 106/1/225 107/1/224 
f 106/1/226 105/1/227 108/1/227 
f 105/1/227 109/1/228 108/1/227 
f 107/1/229 106/1/229 108/1/229 
f 94/1/230 93/1/231 76/1/232 
f 105/1/233 27/1/234 109/1/233 
f 28/1/235 109/1/236 27/1/237 
f 94/1/238 76/1/239 110/1/239 
f 76/1/240 45/1/68 110/1/240 
f 60/1/241 54/1/242 107/1/242 
f 111/1/243 107/1/243 108/1/243 
f 60/1/244 107/1/245 59/1/245 
f 59/1/245 107/1/245 111/1/246 
f 108/1/247 109/1/248 112/1/249 
f 31/1/250 112/1/249 109/1/248 
f 111/1/251 108/1/247 112/1/249 
f 31/1/252 109/1/253 28/1/252 
f 111/1/254 61/1/254 59/1/255 
f 113/2/256 52/2/256 84/2/256 
f 113/2/257 84/2/258 104/2/259 
f 111/1/260 112/1/260 61/1/260 
f 87/1/261 42/1/63 53/1/77 
f 113/2/262 55/2/263 52/2/264 
f 114/2/265 55/2/263 113/2/262 
f 114/2/265 56/2/266 55/2/263 
f 114/2/265 115/2/267 56/2/268 
f 94/1/269 110/1/270 95/1/269 
f 113/2/271 104/2/272 116/2/272 
f 116/2/273 104/2/274 87/2/273 
f 96/1/275 92/1/276 94/1/277 
f 34/1/278 92/1/276 117/1/279 
f 116/2/280 87/2/280 53/2/281 
f 118/2/282 113/2/282 116/2/282 
f 110/1/283 45/1/284 119/1/285 
f 119/1/285 45/1/284 74/1/286 
f 74/1/286 45/1/284 56/1/287 
f 119/1/288 74/1/286 120/1/289 
f 120/1/289 74/1/286 121/1/290 
f 118/2/291 116/2/291 65/2/291 
f 112/1/292 30/1/293 61/1/294 
f 112/1/292 31/1/295 30/1/293 
f 61/1/294 30/1/293 122/1/296 
f 33/1/297 34/1/297 117/1/298 
f 113/2/299 71/2/299 114/2/300 
f 97/1/301 117/1/302 92/1/301 
f 119/1/303 95/1/303 110/1/303 
f 95/1/304 119/1/304 98/1/305 
f 71/2/306 113/2/306 118/2/306 
f 96/1/307 97/1/308 92/1/308 
f 123/1/309 32/1/309 33/1/310 
f 120/1/311 98/1/312 119/1/311 
f 123/1/313 33/1/314 124/1/315 
f 125/1/316 124/1/315 33/1/314 
f 63/2/317 65/2/318 116/2/317 
f 126/2/319 63/2/317 116/2/317 
f 125/1/320 33/1/321 117/1/322 
f 120/1/323 127/1/324 98/1/324 
f 71/2/325 70/2/326 114/2/327 
f 70/2/326 115/2/328 114/2/327 
f 128/1/329 32/1/330 123/1/331 
f 116/2/332 53/2/332 126/2/332 
f 129/2/333 71/2/333 118/2/334 
f 129/2/333 68/2/335 71/2/333 
f 99/1/336 130/1/337 97/1/338 
f 97/1/338 130/1/337 117/1/339 
f 130/1/340 125/1/340 117/1/340 
f 98/1/341 127/1/342 99/1/342 
f 99/1/342 127/1/342 131/1/343 
f 53/2/344 57/2/345 126/2/345 
f 132/1/346 124/1/347 125/1/348 
f 123/1/349 124/1/347 132/1/346 
f 132/1/350 125/1/351 133/1/352 
f 133/1/352 125/1/351 130/1/353 
f 122/1/354 58/1/354 61/1/354 
f 128/1/355 123/1/355 134/1/355 
f 74/1/356 72/1/356 121/1/356 
f 132/1/357 134/1/357 123/1/357 
f 70/2/358 56/2/358 115/2/359 
f 127/1/360 120/1/361 121/1/361 
f 118/2/362 65/2/363 129/2/364 
f 65/2/363 64/2/365 129/2/364 
f 57/2/366 63/2/366 126/2/367 
f 99/1/368 131/1/369 135/1/370 
f 135/1/370 130/1/371 99/1/368 
f 130/1/371 135/1/370 133/1/372 
f 136/1/373 137/1/374 135/1/370 
f 137/1/374 138/1/375 135/1/370 
f 137/1/374 139/1/376 138/1/375 
f 122/1/377 30/1/378 140/1/379 
f 122/1/377 140/1/379 141/1/380 
f 140/1/379 30/1/378 38/1/381 
f 142/1/382 141/1/380 140/1/379 
f 142/1/382 140/1/379 38/1/381 
f 142/1/382 38/1/381 143/1/383 
f 143/1/383 38/1/381 39/1/384 
f 143/1/383 39/1/384 144/1/385 
f 134/1/386 132/1/387 138/1/387 
f 138/1/388 132/1/389 133/1/390 
f 129/2/391 64/2/392 68/2/393 
f 131/1/394 127/1/394 135/1/395 
f 128/1/396 134/1/397 139/1/396 
f 128/1/398 145/1/399 32/1/400 
f 139/1/401 145/1/399 128/1/398 
f 127/1/402 121/1/403 136/1/404 
f 135/1/405 127/1/405 136/1/406 
f 122/1/407 62/1/407 58/1/407 
f 139/1/408 134/1/409 138/1/408 
f 135/1/410 138/1/411 133/1/410 
f 136/1/412 121/1/412 72/1/413 
f 141/1/414 62/1/414 122/1/415 
f 29/1/416 32/1/417 145/1/418 
f 136/1/419 72/1/420 73/1/421 
f 73/1/421 29/1/422 136/1/419 
f 73/1/421 146/1/423 29/1/422 
f 146/1/423 39/1/424 29/1/422 
f 144/1/425 39/1/424 146/1/423 
f 137/1/426 29/1/427 139/1/427 
f 139/1/428 29/1/428 145/1/429 
f 141/1/430 66/1/431 62/1/432 
f 136/1/433 29/1/433 137/1/434 
f 147/1/435 67/1/436 66/1/437 
f 141/1/438 147/1/439 66/1/440 
f 142/1/441 147/1/439 141/1/438 
f 69/1/442 67/1/443 148/1/442 
f 147/1/444 142/1/445 143/1/446 
f 147/1/444 143/1/446 149/1/447 
f 150/1/448 149/1/448 143/1/446 
f 73/1/449 69/1/450 151/1/451 
f 151/1/451 69/1/450 148/1/452 
f 148/1/453 67/1/454 149/1/453 
f 150/1/455 148/1/453 149/1/453 
f 147/1/456 149/1/457 67/1/458 
f 146/1/459 73/1/459 151/1/459 
f 151/1/460 148/1/460 150/1/460 
f 152/1/461 146/1/461 151/1/462 
f 152/1/461 144/1/463 146/1/461 
f 143/1/464 144/1/463 152/1/465 
f 150/1/466 152/1/466 151/1/467 
f 143/1/468 152/1/468 150/1/469 
# 0 polygons - 300 triangles

