# 3ds Max Wavefront OBJ Exporter v0.97b - (c)2007 guruware
# File Created: 09.08.2018 17:13:18

mtllib SM_Env_Rune_Pillar_05.mtl

#
# object SM_Env_Rune_Pillar_05
#

v  -0.7662 0.8078 -0.9042
v  -0.7795 0.7403 -0.8465
v  -0.7313 0.7881 -0.8455
v  -0.6872 0.7181 -0.8465
v  -0.6673 0.7520 -0.8461
v  -0.6404 0.8099 -0.8465
v  -0.7138 0.6707 -0.8455
v  -0.6463 0.7707 -0.8461
v  -0.7792 0.6317 -0.8468
v  -0.6054 0.6099 -0.8455
v  -0.5480 0.6882 -0.8465
v  -0.7578 0.6055 -0.8454
v  -0.7528 0.5447 -0.8459
v  -0.7093 0.6013 -0.8455
v  -0.6055 0.5491 -0.8456
v  -0.5878 0.4403 -0.8454
v  -0.6404 0.5187 -0.8461
v  -0.7795 0.4099 -0.8465
v  -0.7563 0.3791 -0.8465
v  -0.6486 0.4491 -0.8455
v  -0.6665 0.4664 -0.8454
v  -0.6899 0.5402 -0.8455
v  -0.6616 0.5316 -0.8454
v  -0.6815 0.5606 -0.8455
v  -0.6575 0.5837 -0.8454
v  -0.6306 0.5576 -0.8459
v  -0.6306 0.6057 -0.8460
v  -0.6880 0.6185 -0.8456
v  -0.6572 0.6360 -0.8456
v  -0.6574 0.6969 -0.8455
v  -0.6399 0.6533 -0.8456
v  -0.5478 0.3490 -0.8463
v  -0.5835 0.2533 -0.8467
v  -0.5639 0.2604 -0.8483
v  -0.7578 0.2576 -0.8455
v  -0.5470 0.8057 -0.8730
v  -0.7805 0.6316 -0.8601
v  -0.7806 0.5881 -0.8820
v  -0.7806 0.5534 -0.8863
v  -0.7795 0.5491 -0.8695
v  -0.7802 0.5316 -0.8606
v  -0.5605 0.4711 -0.8635
v  -0.5471 0.5360 -0.8645
v  -0.5482 0.4485 -0.8625
v  -0.7617 0.4009 -0.8571
v  -0.7797 0.2794 -0.8651
v  -0.5481 0.2533 -0.8899
v  -0.6733 0.6960 -0.8465
v  -0.7014 0.6705 -0.8569
v  -0.6676 0.6963 -0.8532
v  -0.6392 0.6352 -0.8572
v  -0.6193 0.5876 -0.8571
v  -0.6703 0.5792 -0.8557
v  -0.7008 0.6093 -0.8574
v  -0.6181 0.5526 -0.8589
v  -0.6528 0.5229 -0.8566
v  -0.6529 0.4707 -0.8575
v  -0.5485 0.4797 -0.8869
v  -0.7806 0.4142 -0.8775
v  -0.7806 0.7403 -1.0425
v  -0.7803 0.5447 -1.0514
v  -0.7806 0.4881 -1.0381
v  -0.7780 0.4190 -1.0116
v  -0.7790 0.5141 -1.0628
v  -0.7795 0.6186 -1.0780
v  -0.7797 0.7143 -1.0782
v  -0.7795 0.7705 -1.0202
v  -0.7766 0.7971 -0.9639
v  -0.7718 0.4057 -0.8732
v  -0.7806 0.3664 -0.8774
v  -0.5469 0.3446 -1.0251
v  -0.5494 0.2540 -1.0289
v  -0.5481 0.4708 -1.0777
v  -0.5477 0.3752 -1.0635
v  -0.5481 0.5881 -1.0779
v  -0.5470 0.6447 -1.0730
v  -0.5480 0.7751 -1.0780
v  -0.7039 0.2533 -0.8676
v  -0.7793 0.2536 -0.9039
v  -0.7148 0.8099 -0.9477
v  -0.6763 0.7974 -1.0671
v  -0.7806 0.2794 -0.9250
v  -0.7806 0.3707 -0.9994
v  -0.7717 0.2602 -0.9171
v  -0.7649 0.2542 -0.9439
v  -0.6821 0.2588 -1.0509
v  -0.7186 0.2546 -0.9952
v  -0.7143 0.2563 -1.0288
v  -0.7712 0.3752 -0.9167
v  -0.7534 0.3510 -1.0060
v  -0.7731 0.2670 -0.9556
v  -0.7670 0.2955 -0.9627
v  -0.7632 0.2853 -0.9698
v  -0.7495 0.3168 -1.0061
v  -0.7325 0.7743 -1.0299
v  -0.7518 0.2713 -1.0109
v  -0.7267 0.2718 -1.0501
v  -0.6927 0.2648 -1.0602
v  -0.6564 0.2559 -1.0621
v  -0.7572 0.7488 -1.0786
v  -0.5751 0.8093 -1.0508
v  -0.7114 0.3566 -1.0481
v  -0.7316 0.2923 -1.0521
v  -0.6089 0.2533 -1.0645
v  -0.5573 0.2747 -1.0569
v  -0.7569 0.5102 -1.0780
v  -0.7719 0.7336 -1.0620
v  -0.7660 0.7230 -1.0791
v  -0.7475 0.4403 -1.0599
v  -0.5661 0.3231 -1.0623
v  -0.7165 0.3823 -1.0531
v  -0.7703 0.6142 -1.0791
v  -0.7606 0.5797 -1.0777
v  -0.6157 0.5876 -1.0690
v  -0.6055 0.5491 -1.0790
v  -0.6184 0.5534 -1.0654
v  -0.6054 0.6099 -1.0790
v  -0.6824 0.7010 -1.0786
v  -0.6733 0.6917 -1.0674
v  -0.7014 0.6705 -1.0676
v  -0.6875 0.6623 -1.0786
v  -0.6399 0.6533 -1.0790
v  -0.6319 0.6262 -1.0671
v  -0.6572 0.6360 -1.0789
v  -0.6880 0.6185 -1.0789
v  -0.6953 0.6045 -1.0689
v  -0.7138 0.6099 -1.0789
v  -0.6305 0.6056 -1.0786
v  -0.6575 0.5837 -1.0791
v  -0.6747 0.5665 -1.0790
v  -0.6306 0.5575 -1.0786
v  -0.6528 0.5229 -1.0679
v  -0.6404 0.5187 -1.0784
v  -0.6527 0.4491 -1.0790
v  -0.5659 0.4664 -1.0791
v  -0.6574 0.6969 -1.0790
v  -0.6575 0.7577 -1.0791
v  -0.7138 0.6707 -1.0790
v  -0.5530 0.6099 -1.0790
v  -0.6616 0.5316 -1.0791
v  -0.6182 0.7961 -1.0785
v  -0.6873 0.3969 -1.0787
v  -0.6057 0.3490 -1.0764
v  -0.6665 0.2881 -1.0790
v  -0.6066 0.3096 -1.0725
v  -0.7010 0.2819 -1.0650
v  -0.5886 0.2879 -1.0741
# 147 vertices

vn -0.5945 0.5872 0.5493
vn 0.0116 0.0014 0.9999
vn -0.0034 0.0003 1.0000
vn 0.0051 0.0051 1.0000
vn 0.0063 -0.0011 1.0000
vn -0.0027 0.0038 1.0000
vn -0.0183 -0.0028 0.9998
vn 0.0055 0.0083 0.9999
vn -0.0259 0.0109 0.9996
vn 0.0092 0.0031 1.0000
vn 0.0124 0.0029 0.9999
vn -0.0114 0.0091 0.9999
vn 0.0008 -0.0038 1.0000
vn -0.0050 -0.0022 1.0000
vn 0.0048 0.0003 1.0000
vn -0.0021 -0.0022 1.0000
vn -0.0074 0.0035 1.0000
vn -0.0031 -0.0041 1.0000
vn -0.0034 -0.0042 1.0000
vn -0.0023 -0.0036 1.0000
vn -0.0050 -0.0040 1.0000
vn -0.0059 -0.0012 1.0000
vn 0.0042 -0.0004 1.0000
vn -0.0019 0.0000 1.0000
vn 0.0103 0.0033 0.9999
vn 0.0172 -0.0000 0.9999
vn 0.0101 0.0022 0.9999
vn 0.0044 0.0010 1.0000
vn 0.0011 -0.0042 1.0000
vn 0.0013 -0.0006 1.0000
vn -0.0042 -0.0037 1.0000
vn 0.0292 -0.0176 0.9994
vn 0.0494 -0.0149 0.9987
vn 0.0915 -0.0381 0.9951
vn 0.0072 0.0083 0.9999
vn 0.0029 0.0024 1.0000
vn 0.2760 0.2092 0.9381
vn -0.7729 -0.6299 0.0771
vn -0.8299 -0.0705 0.5535
vn -0.8307 -0.0725 0.5519
vn -0.8290 -0.0686 0.5551
vn -0.5737 0.3902 0.7202
vn -0.5072 0.0962 0.8565
vn 0.6144 -0.1048 0.7820
vn 0.6365 -0.1181 0.7622
vn 0.5915 -0.0913 0.8011
vn 0.3563 0.1884 0.9152
vn 0.3464 0.2259 0.9105
vn 0.3654 0.1506 0.9186
vn -0.6118 -0.4599 -0.6435
vn -0.6582 0.0143 0.7527
vn 0.3464 -0.8939 0.2846
vn 0.4610 -0.7181 0.5214
vn 0.5253 -0.7443 0.4124
vn -0.3179 0.1219 0.9402
vn 0.4635 -0.4653 0.7541
vn -0.5757 -0.4571 0.6779
vn 0.5022 0.4318 0.7492
vn 0.8814 0.3700 0.2937
vn -0.4407 -0.1848 0.8784
vn -0.4607 -0.4102 0.7871
vn -0.4434 -0.4054 0.7994
vn -0.4778 -0.4146 0.7745
vn 0.7112 -0.0053 0.7030
vn 0.7039 0.0000 0.7103
vn 0.4816 0.5258 0.7012
vn -0.6428 0.0000 0.7660
vn 0.5003 -0.5318 0.6832
vn 0.4697 -0.5212 0.7125
vn 0.4384 -0.5099 0.7402
vn -0.5109 0.5764 0.6378
vn -0.4248 0.5504 0.7187
vn -0.6476 -0.0116 0.7619
vn 0.7629 -0.0573 0.6439
vn 0.6639 -0.0127 0.7477
vn -0.8591 0.1054 0.5009
vn 0.4813 0.4957 0.7230
vn 0.6747 0.0008 0.7381
vn 0.7954 0.0524 0.6039
vn -0.6703 -0.0119 0.7420
vn 0.7186 -0.0105 0.6953
vn -0.7325 -0.0588 0.6782
vn 0.9013 -0.1785 0.3948
vn -0.4940 -0.8632 -0.1038
vn 0.9099 -0.1734 0.3768
vn -0.9986 0.0034 0.0519
vn -0.9952 -0.0024 0.0977
vn -0.9999 0.0077 -0.0088
vn -0.9999 -0.0009 -0.0156
vn -1.0000 0.0031 0.0008
vn -1.0000 0.0009 -0.0019
vn -0.9999 -0.0005 0.0111
vn -0.9999 -0.0095 0.0038
vn -0.9994 -0.0175 -0.0309
vn -0.9987 -0.0458 -0.0210
vn -0.9972 -0.0123 -0.0744
vn -0.9996 -0.0010 -0.0271
vn -0.9997 -0.0020 -0.0237
vn -0.9999 -0.0043 0.0118
vn -0.9997 -0.0010 0.0240
vn -0.9972 0.0426 0.0607
vn -0.9929 0.0829 0.0858
vn -0.9984 0.0549 0.0095
vn -0.9992 0.0397 0.0080
vn -0.9969 0.0773 0.0134
vn 0.7355 0.4221 0.5299
vn -0.8221 0.0861 0.5627
vn -0.8146 0.0830 0.5741
vn -0.8388 0.0551 0.5417
vn -0.8018 0.0968 0.5897
vn -0.7994 0.0767 0.5959
vn -0.7361 -0.6159 0.2808
vn 1.0000 0.0073 0.0031
vn 1.0000 -0.0003 0.0050
vn 1.0000 -0.0072 0.0034
vn 0.9994 -0.0176 0.0282
vn 0.9999 -0.0158 -0.0023
vn 0.9993 -0.0151 0.0332
vn 1.0000 -0.0014 0.0061
vn 0.9991 0.0009 0.0416
vn 0.9996 -0.0269 -0.0099
vn 0.9999 0.0017 -0.0122
vn 0.9998 0.0009 -0.0195
vn 0.9999 -0.0104 0.0061
vn 1.0000 -0.0065 0.0053
vn 1.0000 0.0079 -0.0061
vn -0.0340 -0.9934 0.1099
vn -0.0235 -0.9906 0.1350
vn -0.0446 -0.9954 0.0843
vn -0.2071 0.8841 0.4189
vn -0.7373 -0.3036 0.6036
vn -0.7373 -0.3036 0.6035
vn -0.0254 0.9995 0.0187
vn 0.0015 0.9998 -0.0214
vn 0.0633 0.9958 -0.0668
vn 0.0282 0.9977 -0.0614
vn 0.0984 0.9925 -0.0725
vn -0.0635 0.9658 0.2514
vn -0.9998 -0.0157 0.0092
vn -0.9996 -0.0235 0.0137
vn -1.0000 -0.0038 0.0069
vn -0.9991 -0.0394 0.0137
vn -0.9991 0.0334 0.0256
vn -0.9965 0.0667 0.0511
vn -0.7967 -0.5080 0.3273
vn 0.1699 -0.9173 -0.3601
vn -0.2159 -0.9629 0.1617
vn 0.0088 -0.9996 -0.0275
vn -0.0278 -0.9996 -0.0107
vn 0.0076 -0.9997 -0.0248
vn 0.0227 -0.9994 -0.0275
vn 0.0002 -0.9999 -0.0103
vn -0.0013 -0.9999 -0.0099
vn -0.0353 -0.9994 -0.0046
vn 0.0488 -0.9979 -0.0423
vn -0.9563 0.2333 -0.1762
vn -0.5688 -0.5293 -0.6295
vn -0.5951 -0.5268 -0.6069
vn -0.5418 -0.5311 -0.6515
vn -0.1636 0.9756 -0.1461
vn -0.6184 0.7854 0.0278
vn -0.9510 0.2866 0.1156
vn -0.8997 -0.4345 -0.0423
vn -0.6863 -0.7262 -0.0393
vn -0.9489 0.1353 -0.2850
vn -0.9740 -0.1915 0.1209
vn -0.8080 -0.5847 -0.0725
vn -0.8495 0.0538 -0.5249
vn 0.0820 -0.6413 -0.7629
vn -0.9183 -0.0748 -0.3888
vn -0.9268 -0.0623 -0.3704
vn -0.9319 -0.0521 -0.3590
vn -0.9109 -0.0860 -0.4036
vn -0.8996 -0.0996 -0.4253
vn -0.0755 0.9026 -0.4238
vn -0.1137 0.9117 -0.3948
vn -0.1515 0.9187 -0.3647
vn -0.9655 -0.1333 -0.2236
vn -0.9655 -0.1333 -0.2235
vn -0.3313 -0.9061 -0.2632
vn -0.3155 -0.9026 -0.2930
vn -0.3109 -0.9151 -0.2567
vn -0.2577 -0.9190 -0.2983
vn -0.2411 -0.9174 -0.3166
vn -0.4934 0.8399 -0.2262
vn -0.5035 0.8272 -0.2495
vn -0.5131 0.8391 -0.1808
vn -0.5426 0.8249 -0.1583
vn -0.9534 0.0775 -0.2914
vn 0.7377 0.6672 -0.1030
vn -0.6872 -0.7160 -0.1228
vn -0.1226 0.9917 0.0397
vn -0.7013 -0.0761 -0.7088
vn -0.9116 0.0870 -0.4017
vn -0.0538 -0.9926 0.1087
vn -0.0500 -0.9904 0.1286
vn -0.0460 -0.9879 0.1484
vn -0.2104 0.5868 -0.7819
vn -0.3687 -0.2078 -0.9060
vn -0.8291 0.2902 -0.4779
vn 0.9598 -0.0145 -0.2804
vn -0.2559 -0.8458 -0.4680
vn -0.5312 -0.5675 -0.6291
vn -0.8145 -0.2471 -0.5249
vn 0.3767 -0.6905 -0.6175
vn -0.8312 0.2941 -0.4718
vn -0.8314 0.2965 -0.4700
vn -0.8309 0.2918 -0.4738
vn -0.5951 0.6413 -0.4844
vn -0.7625 -0.2565 -0.5940
vn -0.7625 -0.2566 -0.5939
vn -0.7623 -0.2564 -0.5943
vn 0.9037 -0.3258 -0.2777
vn 0.8584 0.1016 -0.5027
vn -0.6570 -0.2801 -0.6999
vn -0.6494 -0.2925 -0.7019
vn -0.6648 -0.2677 -0.6974
vn -0.4637 0.6692 -0.5806
vn -0.2618 -0.3244 -0.9089
vn -0.6294 -0.2078 -0.7488
vn -0.7119 -0.0085 -0.7022
vn -0.7279 -0.0170 -0.6855
vn -0.6958 0.0000 -0.7183
vn 0.4009 -0.5197 -0.7545
vn -0.3540 0.4764 -0.8048
vn 0.3033 -0.3064 -0.9023
vn -0.7660 -0.0586 -0.6401
vn 0.4882 0.0628 -0.8704
vn 0.7693 0.3494 -0.5349
vn -0.4862 -0.1598 -0.8591
vn -0.1713 0.1645 -0.9714
vn 0.7063 -0.1289 -0.6961
vn 0.5255 -0.5398 -0.6576
vn -0.5019 0.5653 -0.6546
vn -0.4290 0.5441 -0.7211
vn -0.6183 0.1160 -0.7773
vn 0.1099 -0.1462 -0.9831
vn -0.6676 -0.4275 -0.6096
vn -0.5915 -0.0016 -0.8063
vn 0.6205 -0.2790 -0.7329
vn 0.5507 -0.5632 -0.6161
vn -0.6088 0.5203 -0.5989
vn -0.5865 -0.4658 -0.6626
vn -0.6138 0.0131 -0.7893
vn 0.6747 0.0000 -0.7381
vn 0.5154 0.4437 -0.7332
vn 0.4862 0.0671 -0.8713
vn -0.4250 -0.3687 -0.8267
vn 0.5225 0.4710 -0.7107
vn 0.5406 0.0000 -0.8413
vn -0.8724 0.1396 -0.4685
vn 0.4386 -0.5097 -0.7402
vn 0.8152 0.0873 -0.5726
vn -0.0507 0.9305 -0.3628
vn 0.2167 0.7076 -0.6725
vn 0.0345 -0.0180 -0.9992
vn 0.0097 -0.0054 -0.9999
vn 0.0107 0.0015 -0.9999
vn 0.0040 -0.0021 -1.0000
vn -0.0027 -0.0031 -1.0000
vn 0.0608 -0.0377 -0.9974
vn -0.0069 0.0017 -1.0000
vn -0.0025 0.0012 -1.0000
vn 0.0029 0.0044 -1.0000
vn 0.0105 0.0020 -0.9999
vn 0.0111 0.0000 -0.9999
vn 0.0116 -0.0019 -0.9999
vn 0.0067 -0.0003 -1.0000
vn 0.0006 0.0020 -1.0000
vn -0.0072 -0.0066 -1.0000
vn 0.0032 -0.0050 -1.0000
vn -0.0217 0.0000 -0.9998
vn -0.0147 -0.0190 -0.9997
vn 0.0013 -0.0141 -0.9999
vn 0.0065 0.0055 -1.0000
vn -0.0156 0.0042 -0.9999
vn 0.0057 0.0054 -1.0000
vn 0.0002 0.0007 -1.0000
vn -0.0031 0.0002 -1.0000
vn 0.0141 -0.0038 -0.9999
vn -0.0074 0.0021 -1.0000
vn 0.0113 -0.0093 -0.9999
vn 0.0442 -0.0114 -0.9990
vn 0.0145 -0.0135 -0.9998
vn -0.0008 -0.0003 -1.0000
vn 0.0750 -0.0016 -0.9972
vn -0.0908 0.0013 -0.9959
vn -0.0652 -0.0020 -0.9979
vn -0.1161 0.0046 -0.9932
vn 0.0231 -0.0087 -0.9997
vn 0.0341 0.0099 -0.9994
vn -0.1850 0.2034 -0.9614
vn -0.0298 0.2765 -0.9605
vn 0.0780 0.1580 -0.9844
vn -0.5681 -0.0262 -0.8226
vn -0.4640 -0.2801 -0.8404
vn -0.5048 -0.3608 -0.7842
vn 0.2662 -0.1083 -0.9578
vn 0.2716 -0.1058 -0.9566
vn 0.2615 -0.1130 -0.9586
vn 0.2558 -0.1132 -0.9601
vn 0.2760 -0.0988 -0.9561
vn -0.9764 -0.1666 0.1377
vn -0.3359 0.1631 -0.9277
vn -0.6198 -0.1158 -0.7762
vn -0.6198 -0.1159 -0.7762
vn 0.1423 -0.0986 -0.9849
vn 0.1740 0.2116 -0.9617
vn -0.3835 0.0498 -0.9222
vn -0.2377 -0.1280 -0.9629
vn 0.4764 -0.0095 -0.8792
vn 0.2371 -0.3919 -0.8889
vn -0.0561 -0.1393 -0.9887
vn 0.2972 -0.4135 -0.8606
vn -0.4362 -0.1911 -0.8793
vn -0.3122 -0.3934 -0.8647
vn -0.3369 -0.4016 -0.8516
vn -0.2876 -0.3849 -0.8770
vn -0.1674 -0.4984 -0.8506
vn 0.0044 0.0027 1.0000
vn 0.7610 -0.0856 0.6431
vn -0.6096 0.6312 0.4795
vn 0.3805 0.2611 0.8872
vn -0.5123 0.5765 0.6366
vn 0.1116 -0.1255 0.9858
vn -0.6032 0.0982 0.7915
# 326 vertex normals

vt 0.2117 0.3030 0.0000
vt 0.3101 0.3834 0.0000
# 2 texture coords

g SM_Env_Rune_Pillar_05
usemtl Maxted_A_Frame_VR_TX_01
s 1
f 1/1/1 2/1/1 3/1/1 
f 4/1/2 5/1/3 6/1/4 
f 3/1/5 4/1/2 6/1/4 
f 7/1/6 4/1/2 3/1/5 
f 2/1/7 7/1/6 3/1/5 
f 5/1/3 8/1/8 6/1/4 
f 2/1/7 9/1/9 7/1/6 
f 8/1/8 10/1/10 6/1/4 
f 6/1/4 10/1/10 11/1/11 
f 7/1/6 9/1/9 12/1/12 
f 12/1/12 13/1/13 7/1/6 
f 13/1/13 14/1/14 7/1/6 
f 10/1/10 15/1/15 11/1/11 
f 11/1/11 15/1/15 16/1/16 
f 17/1/17 16/1/16 15/1/15 
f 18/1/18 14/1/14 13/1/13 
f 14/1/14 18/1/18 19/1/19 
f 17/1/17 20/1/20 16/1/16 
f 19/1/19 16/1/16 20/1/20 
f 19/1/19 20/1/20 21/1/21 
f 22/1/22 19/1/19 21/1/21 
f 22/1/22 14/1/14 19/1/19 
f 22/1/22 21/1/21 23/1/23 
f 24/1/24 22/1/22 23/1/23 
f 24/1/24 14/1/14 22/1/22 
f 24/1/24 23/1/23 25/1/25 
f 23/1/23 26/1/26 25/1/25 
f 27/1/27 25/1/25 26/1/26 
f 28/1/28 25/1/25 27/1/27 
f 29/1/29 28/1/28 27/1/27 
f 30/1/30 28/1/28 29/1/29 
f 30/1/30 29/1/29 31/1/31 
f 31/1/31 10/1/10 30/1/30 
f 8/1/8 30/1/30 10/1/10 
f 16/1/16 19/1/19 32/1/32 
f 33/1/33 34/1/34 32/1/32 
f 35/1/35 33/1/33 19/1/19 
f 19/1/19 33/1/36 32/1/32 
f 6/1/37 11/1/37 36/1/37 
f 37/1/38 12/1/38 9/1/38 
f 38/1/39 13/1/39 12/1/40 
f 39/1/41 13/1/39 38/1/39 
f 40/1/42 41/1/42 13/1/42 
f 41/1/43 18/1/43 13/1/43 
f 16/1/44 42/1/45 43/1/44 
f 16/1/44 43/1/44 11/1/46 
f 16/1/47 44/1/47 42/1/48 
f 16/1/47 32/1/49 44/1/47 
f 45/1/50 19/1/50 18/1/50 
f 46/1/51 35/1/51 19/1/51 
f 33/1/52 47/1/52 34/1/52 
f 48/2/53 7/2/53 49/2/53 
f 49/2/54 50/2/54 48/2/54 
f 30/1/55 49/1/55 28/1/55 
f 51/2/56 31/2/56 29/2/56 
f 51/2/57 10/2/57 31/2/57 
f 51/2/58 29/2/58 27/2/58 
f 52/2/59 51/2/59 27/2/59 
f 52/2/60 10/2/60 51/2/60 
f 53/2/61 28/2/61 54/2/62 
f 53/2/61 25/2/63 28/2/61 
f 26/1/64 52/1/64 27/1/65 
f 54/2/66 14/2/66 53/2/66 
f 10/2/67 52/2/67 15/2/67 
f 55/2/68 26/2/69 56/2/69 
f 56/2/69 26/2/69 23/2/70 
f 17/2/71 15/2/71 55/2/71 
f 56/2/72 17/2/72 55/2/72 
f 56/2/73 57/2/73 17/2/73 
f 21/2/74 56/2/74 23/2/74 
f 57/2/75 56/2/75 21/2/75 
f 17/2/76 57/2/76 20/2/76 
f 57/2/77 21/2/77 20/2/77 
f 54/2/78 49/2/78 7/2/78 
f 14/2/79 54/2/79 7/2/79 
f 49/2/80 54/2/80 28/2/80 
f 52/2/64 26/2/64 55/2/81 
f 52/2/82 55/2/82 15/2/82 
f 42/1/83 58/1/83 43/1/83 
f 59/1/84 45/1/84 18/1/84 
f 34/1/85 47/1/85 32/1/85 
f 37/1/86 9/1/87 2/1/86 
f 2/1/86 60/1/88 37/1/86 
f 60/1/88 61/1/89 37/1/90 
f 61/1/89 38/1/91 37/1/90 
f 61/1/89 39/1/92 38/1/91 
f 61/1/89 59/1/93 39/1/92 
f 62/1/94 59/1/93 61/1/89 
f 62/1/94 63/1/95 59/1/93 
f 64/1/96 62/1/94 61/1/89 
f 65/1/97 61/1/89 60/1/88 
f 66/1/98 65/1/97 60/1/88 
f 41/1/99 39/1/92 18/1/100 
f 39/1/101 59/1/93 18/1/100 
f 39/1/101 41/1/102 40/1/102 
f 67/1/103 60/1/88 2/1/104 
f 67/1/103 2/1/104 68/1/105 
f 42/1/106 44/1/106 58/1/106 
f 69/1/107 19/1/108 45/1/109 
f 69/1/107 70/1/110 19/1/108 
f 46/1/111 19/1/108 70/1/110 
f 69/1/112 45/1/112 59/1/112 
f 44/1/113 32/1/114 71/1/115 
f 44/1/113 71/1/115 58/1/116 
f 32/1/114 47/1/117 71/1/115 
f 43/1/118 58/1/116 71/1/115 
f 71/1/115 36/1/119 43/1/118 
f 11/1/120 43/1/118 36/1/119 
f 47/1/117 72/1/121 71/1/115 
f 36/1/119 71/1/115 73/1/122 
f 71/1/115 74/1/123 73/1/122 
f 36/1/119 73/1/122 75/1/124 
f 36/1/119 75/1/124 76/1/125 
f 36/1/119 76/1/125 77/1/126 
f 78/1/127 33/1/128 35/1/127 
f 78/1/127 35/1/127 79/1/129 
f 1/1/130 3/1/130 6/1/130 
f 38/1/131 12/1/132 37/1/131 
f 1/1/133 6/1/134 80/1/133 
f 81/1/135 6/1/134 36/1/136 
f 80/1/137 6/1/135 81/1/135 
f 39/1/138 40/1/138 13/1/138 
f 82/1/139 46/1/140 70/1/141 
f 82/1/139 79/1/142 46/1/140 
f 82/1/139 70/1/141 83/1/143 
f 63/1/144 83/1/143 69/1/144 
f 35/1/145 46/1/145 79/1/145 
f 78/1/146 79/1/146 84/1/146 
f 85/1/147 78/1/147 84/1/147 
f 86/1/148 47/1/149 33/1/150 
f 86/1/148 33/1/150 87/1/151 
f 33/1/150 78/1/152 87/1/151 
f 85/1/153 87/1/151 78/1/152 
f 47/1/149 86/1/148 72/1/154 
f 86/1/148 87/1/151 88/1/155 
f 69/1/156 89/1/156 70/1/156 
f 82/1/157 84/1/158 79/1/158 
f 90/1/159 82/1/157 83/1/159 
f 68/1/160 1/1/160 80/1/160 
f 83/1/161 70/1/161 89/1/161 
f 68/1/162 2/1/162 1/1/162 
f 91/1/163 84/1/163 82/1/163 
f 63/1/164 69/1/164 59/1/164 
f 92/1/165 91/1/165 82/1/165 
f 83/1/166 89/1/166 69/1/166 
f 85/1/167 84/1/167 91/1/167 
f 93/1/168 91/1/168 92/1/168 
f 93/1/169 85/1/169 91/1/169 
f 90/1/170 92/1/171 82/1/172 
f 93/1/173 92/1/171 90/1/170 
f 94/1/174 93/1/173 90/1/170 
f 68/1/175 80/1/176 67/1/176 
f 67/1/176 80/1/176 95/1/177 
f 96/1/178 85/1/179 93/1/179 
f 87/1/180 85/1/181 96/1/180 
f 87/1/180 96/1/180 97/1/182 
f 98/1/183 86/1/183 97/1/182 
f 99/1/184 86/1/183 98/1/183 
f 95/1/185 80/1/186 81/1/185 
f 95/1/187 81/1/185 100/1/187 
f 100/1/187 60/1/188 95/1/187 
f 96/1/189 93/1/189 94/1/189 
f 101/1/190 36/1/190 77/1/190 
f 88/1/191 87/1/191 97/1/191 
f 81/1/192 36/1/192 101/1/192 
f 102/1/193 94/1/193 90/1/193 
f 103/1/194 96/1/194 94/1/194 
f 72/1/195 86/1/196 104/1/196 
f 104/1/196 86/1/196 99/1/197 
f 95/1/198 60/1/198 67/1/198 
f 90/1/199 83/1/199 63/1/199 
f 103/1/200 94/1/200 102/1/200 
f 71/1/201 72/1/201 105/1/201 
f 86/1/202 88/1/202 97/1/202 
f 106/1/203 62/1/203 64/1/203 
f 97/1/204 96/1/204 103/1/204 
f 105/1/205 72/1/205 104/1/205 
f 107/1/206 60/1/207 100/1/206 
f 100/1/206 108/1/208 107/1/206 
f 107/1/209 66/1/209 60/1/209 
f 109/1/210 63/1/211 62/1/210 
f 109/1/210 62/1/210 106/1/212 
f 74/1/213 71/1/213 110/1/213 
f 71/1/214 105/1/214 110/1/214 
f 111/1/215 90/1/215 63/1/216 
f 111/1/215 102/1/217 90/1/215 
f 108/1/218 66/1/218 107/1/218 
f 112/1/219 61/1/219 65/1/219 
f 112/1/220 113/1/220 61/1/220 
f 114/2/221 115/2/221 116/2/222 
f 117/2/223 115/2/221 114/2/221 
f 118/2/224 119/2/224 120/2/224 
f 119/2/225 121/2/225 120/2/225 
f 122/2/226 123/2/226 124/2/226 
f 120/2/227 125/2/227 126/2/227 
f 120/2/228 126/2/228 127/2/228 
f 123/2/229 114/2/229 128/2/229 
f 114/2/230 123/2/230 117/2/230 
f 126/2/231 129/2/231 130/2/231 
f 116/2/232 131/2/232 114/2/232 
f 131/2/233 116/2/233 132/2/233 
f 116/2/234 115/2/234 133/2/234 
f 116/2/235 133/2/235 132/2/235 
f 133/2/236 134/2/236 132/2/236 
f 74/1/237 135/1/237 73/1/237 
f 109/1/238 111/1/238 63/1/238 
f 136/2/239 119/2/239 137/2/239 
f 137/2/240 119/2/240 118/2/240 
f 120/2/241 138/2/241 118/2/241 
f 119/2/242 136/2/242 121/2/242 
f 123/2/243 122/2/243 117/2/243 
f 120/2/244 121/2/244 125/2/244 
f 138/2/245 120/2/245 127/2/245 
f 123/2/246 128/2/246 124/2/246 
f 76/1/247 75/1/247 139/1/247 
f 126/2/248 125/2/248 129/2/248 
f 130/2/249 127/2/249 126/2/249 
f 114/1/250 131/1/250 128/1/250 
f 113/1/251 64/1/251 61/1/251 
f 132/2/252 140/2/252 131/2/252 
f 140/2/253 132/2/253 134/2/253 
f 141/1/254 81/1/254 101/1/254 
f 101/1/255 77/1/255 141/1/255 
f 77/1/256 122/1/257 141/1/258 
f 122/1/257 137/1/259 141/1/258 
f 122/1/257 136/1/260 137/1/259 
f 77/1/256 76/1/261 122/1/257 
f 122/1/257 121/1/262 136/1/260 
f 122/1/257 124/1/263 121/1/262 
f 124/1/263 125/1/264 121/1/262 
f 128/1/265 125/1/264 124/1/263 
f 128/1/265 129/1/266 125/1/264 
f 131/1/267 129/1/266 128/1/265 
f 129/1/266 131/1/267 130/1/268 
f 131/1/267 140/1/269 130/1/268 
f 130/1/268 140/1/269 127/1/270 
f 127/1/270 140/1/269 142/1/271 
f 127/1/270 142/1/271 106/1/272 
f 127/1/270 106/1/272 113/1/273 
f 112/1/274 127/1/270 113/1/273 
f 138/1/275 127/1/270 112/1/274 
f 108/1/276 138/1/275 112/1/274 
f 100/1/277 138/1/275 108/1/276 
f 118/1/278 138/1/275 100/1/277 
f 137/1/259 118/1/278 100/1/277 
f 134/1/279 142/1/271 140/1/269 
f 135/1/280 142/1/271 134/1/279 
f 135/1/280 134/1/279 133/1/281 
f 135/1/280 133/1/281 115/1/282 
f 75/1/283 135/1/280 115/1/282 
f 139/1/284 75/1/283 115/1/282 
f 139/1/284 115/1/282 117/1/285 
f 139/1/284 117/1/285 122/1/257 
f 73/1/286 135/1/280 75/1/283 
f 108/1/276 65/1/287 66/1/288 
f 108/1/287 112/1/289 65/1/287 
f 135/1/280 143/1/290 142/1/271 
f 143/1/290 144/1/291 142/1/271 
f 141/1/292 137/1/292 81/1/292 
f 137/1/293 100/1/293 81/1/293 
f 76/1/294 139/1/294 122/1/294 
f 106/1/295 64/1/295 113/1/295 
f 142/1/296 109/1/296 106/1/296 
f 111/1/297 109/1/297 142/1/297 
f 110/1/298 143/1/299 135/1/300 
f 135/1/300 74/1/301 110/1/298 
f 143/1/299 110/1/298 145/1/302 
f 111/1/303 146/1/303 102/1/303 
f 146/1/304 103/1/304 102/1/304 
f 142/1/305 144/1/306 111/1/305 
f 143/1/307 145/1/307 144/1/307 
f 147/1/308 145/1/308 110/1/308 
f 144/1/309 146/1/309 111/1/309 
f 147/1/310 104/1/310 145/1/310 
f 105/1/311 147/1/311 110/1/311 
f 145/1/312 99/1/312 144/1/312 
f 104/1/313 99/1/313 145/1/313 
f 105/1/314 104/1/314 147/1/314 
f 146/1/315 97/1/315 103/1/315 
f 98/1/316 97/1/317 146/1/316 
f 144/1/318 98/1/316 146/1/316 
f 99/1/319 98/1/319 144/1/319 
f 7/1/6 48/1/320 4/1/2 
f 4/1/2 48/1/320 5/1/3 
f 5/2/321 48/2/321 50/2/321 
f 53/2/322 24/2/322 25/2/322 
f 14/2/323 24/2/323 53/2/323 
f 49/2/324 30/2/324 50/2/324 
f 5/2/325 50/2/325 8/2/325 
f 50/2/326 30/2/326 8/2/326 
# 0 polygons - 290 triangles

